{
	"asset":{
		"generator":"Khronos glTF Blender I/O v4.5.48",
		"version":"2.0"
	},
	"scene":0,
	"scenes":[
		{
			"name":"Scene",
			"nodes":[
				0,
				1
			]
		}
	],
	"nodes":[
		{
			"mesh":0,
			"name":"Light"
		},
		{
			"mesh":1,
			"name":"Bulb"
		}
	],
	"materials":[
		{
			"doubleSided":true,
			"name":"Material.001",
			"pbrMetallicRoughness":{
				"baseColorFactor":[
					0.11080573499202728,
					0.055223021656274796,
					0.032296303659677505,
					1
				],
				"metallicFactor":0,
				"roughnessFactor":0.5
			}
		},
		{
			"doubleSided":true,
			"name":"LightBulb",
			"pbrMetallicRoughness":{
				"baseColorFactor":[
					0.14515730738639832,
					0.14515730738639832,
					0.14515730738639832,
					1
				],
				"metallicFactor":0,
				"roughnessFactor":0
			}
		}
	],
	"meshes":[
		{
			"name":"Cylinder",
			"primitives":[
				{
					"attributes":{
						"POSITION":0,
						"NORMAL":1,
						"TEXCOORD_0":2
					},
					"indices":3,
					"material":0
				}
			]
		},
		{
			"name":"Cube.001",
			"primitives":[
				{
					"attributes":{
						"POSITION":4,
						"NORMAL":5,
						"TEXCOORD_0":6
					},
					"indices":7,
					"material":1
				}
			]
		}
	],
	"accessors":[
		{
			"bufferView":0,
			"componentType":5126,
			"count":80,
			"max":[
				1,
				1,
				1
			],
			"min":[
				-1,
				0.660263180732727,
				-1
			],
			"type":"VEC3"
		},
		{
			"bufferView":1,
			"componentType":5126,
			"count":80,
			"type":"VEC3"
		},
		{
			"bufferView":2,
			"componentType":5126,
			"count":80,
			"type":"VEC2"
		},
		{
			"bufferView":3,
			"componentType":5123,
			"count":138,
			"type":"SCALAR"
		},
		{
			"bufferView":4,
			"componentType":5126,
			"count":96,
			"max":[
				0.2194639891386032,
				0.9914088249206543,
				0.2194639891386032
			],
			"min":[
				-0.2194639891386032,
				0.5582786202430725,
				-0.2194639891386032
			],
			"type":"VEC3"
		},
		{
			"bufferView":5,
			"componentType":5126,
			"count":96,
			"type":"VEC3"
		},
		{
			"bufferView":6,
			"componentType":5126,
			"count":96,
			"type":"VEC2"
		},
		{
			"bufferView":7,
			"componentType":5123,
			"count":144,
			"type":"SCALAR"
		}
	],
	"bufferViews":[
		{
			"buffer":0,
			"byteLength":960,
			"byteOffset":0,
			"target":34962
		},
		{
			"buffer":0,
			"byteLength":960,
			"byteOffset":960,
			"target":34962
		},
		{
			"buffer":0,
			"byteLength":640,
			"byteOffset":1920,
			"target":34962
		},
		{
			"buffer":0,
			"byteLength":276,
			"byteOffset":2560,
			"target":34963
		},
		{
			"buffer":0,
			"byteLength":1152,
			"byteOffset":2836,
			"target":34962
		},
		{
			"buffer":0,
			"byteLength":1152,
			"byteOffset":3988,
			"target":34962
		},
		{
			"buffer":0,
			"byteLength":768,
			"byteOffset":5140,
			"target":34962
		},
		{
			"buffer":0,
			"byteLength":288,
			"byteOffset":5908,
			"target":34963
		}
	],
	"buffers":[
		{
			"byteLength":6196,
			"uri":"light.bin"
		}
	]
}
